<?xml version="1.0" standalone="no"?>
<!DOCTYPE svg PUBLIC "-//W3C//DTD SVG 20010904//EN"
 "http://www.w3.org/TR/2001/REC-SVG-20010904/DTD/svg10.dtd">
<svg version="1.0" xmlns="http://www.w3.org/2000/svg"
 width="156.000000pt" height="156.000000pt" viewBox="0 0 156.000000 156.000000"
 preserveAspectRatio="xMidYMid meet">

<g transform="translate(0.000000,156.000000) scale(0.100000,-0.100000)"
fill="#000000" stroke="none">
<path d="M0 780 l0 -780 780 0 780 0 0 780 0 780 -780 0 -780 0 0 -780z m995
646 c135 -43 251 -124 332 -231 239 -314 165 -752 -165 -973 -217 -145 -477
-157 -710 -32 -292 156 -429 504 -321 818 77 222 285 397 529 443 84 15 247 3
335 -25z"/>
<path d="M539 1300 c-81 -10 -165 -51 -171 -84 -6 -31 12 -58 63 -95 l38 -28
-42 -13 c-108 -32 -217 -112 -217 -159 0 -10 8 -28 18 -40 18 -23 116 -61 156
-61 13 0 39 -3 57 -7 32 -6 30 -7 -31 -19 -36 -7 -79 -13 -97 -13 -40 -1 -60
-30 -42 -62 10 -20 17 -21 74 -15 59 6 186 35 229 52 16 6 16 2 -7 -37 -101
-174 -55 -373 107 -457 42 -22 65 -26 131 -27 71 0 88 4 147 33 127 62 207
178 224 320 l6 60 32 -13 c26 -11 37 -11 56 -2 42 21 51 53 48 157 -5 127 -40
204 -134 297 l-65 64 26 35 c15 20 25 36 24 38 -2 1 -17 12 -33 24 l-28 22
-41 -55 c-22 -30 -46 -55 -52 -55 -7 0 -20 9 -30 19 -25 28 -171 97 -230 109
-72 15 -152 19 -216 12z m166 -81 c67 -12 163 -54 213 -92 l33 -25 -33 -5
c-152 -27 -234 -16 -365 48 -51 25 -93 50 -93 55 0 5 17 12 38 15 20 4 42 8
47 10 22 7 105 4 160 -6z m424 -184 c56 -51 102 -152 108 -234 l4 -66 -29 33
c-18 20 -38 32 -55 32 -39 0 -78 89 -84 192 -2 50 0 78 7 78 5 0 27 -16 49
-35z m-502 -7 c55 -13 71 -28 29 -28 -14 0 -30 -10 -39 -24 -9 -13 -44 -38
-79 -55 -52 -27 -70 -31 -108 -26 -25 4 -52 9 -60 12 -18 7 -29 9 -52 11 -36
4 -16 24 55 57 62 30 159 62 192 64 5 1 33 -5 62 -11z m363 -64 c0 -38 -3 -45
-16 -40 -9 3 -31 6 -49 6 l-34 0 42 40 c23 22 45 40 50 40 4 0 7 -21 7 -46z
m4 -127 c22 -16 31 -60 30 -149 -2 -158 -133 -302 -274 -301 -102 1 -150 46
-150 141 0 67 22 135 56 174 64 71 110 111 148 129 49 22 163 26 190 6z"/>
<path d="M528 1173 c7 -3 16 -2 19 1 4 3 -2 6 -13 5 -11 0 -14 -3 -6 -6z"/>
<path d="M578 1173 c12 -2 32 -2 45 0 12 2 2 4 -23 4 -25 0 -35 -2 -22 -4z"/>
<path d="M518 963 c7 -3 16 -2 19 1 4 3 -2 6 -13 5 -11 0 -14 -3 -6 -6z"/>
<path d="M478 953 c7 -3 16 -2 19 1 4 3 -2 6 -13 5 -11 0 -14 -3 -6 -6z"/>
<path d="M401 939 c-18 -6 -31 -12 -29 -14 5 -5 78 14 78 20 0 6 -8 5 -49 -6z"/>
<path d="M888 761 c-25 -16 -48 -37 -52 -47 -5 -16 -4 -16 11 2 27 32 66 54
114 63 44 9 44 9 8 10 -23 1 -51 -9 -81 -28z"/>
<path d="M790 643 c-19 -26 -46 -53 -60 -60 -16 -8 -19 -13 -9 -13 17 0 79 62
99 99 17 33 8 25 -30 -26z"/>
<path d="M634 646 c-3 -19 -2 -41 3 -49 5 -10 8 1 9 34 1 58 -3 62 -12 15z"/>
</g>
</svg>
